Coordinates
version=1
nRows=24
nColumns=22
inDegrees=yes

Units are S.I. units (second, meters, Newtons, ...)
If the header above contains a line with 'inDegrees', this indicates whether rotational values are in degrees (yes) or radians (no).

endheader
time	pelvis_tilt	pelvis_list	pelvis_rotation	pelvis_tx	pelvis_ty	pelvis_tz	hip_flexion_r	hip_adduction_r	hip_rotation_r	knee_angle_r	ankle_angle_r	subtalar_angle_r	hip_flexion_l	hip_adduction_l	hip_rotation_l	knee_angle_l	ankle_angle_l	subtalar_angle_l	lumbar_extension	lumbar_bending	lumbar_rotation
      5.43000000	     -6.75972592	      2.96397502	    -54.21732175	      0.92894506	      0.84164222	      0.88802742	    -11.82729954	     -2.56680732	     16.77441793	    -24.24767796	      5.69188838	      3.59243307	     33.51708804	     -9.80179828	     -2.53335240	    -22.63626125	     -0.62019548	      3.01218777	      3.92046705	      1.46775154	     17.07469298
      5.44000000	     -6.85254265	      3.01010744	    -54.08338146	      0.93701282	      0.84350311	      0.89161858	    -11.39493902	     -2.58185488	     16.79733209	    -25.24910004	      3.84554998	      3.81459963	     33.24508803	     -9.52771949	     -2.55485944	    -22.96628812	     -0.08589851	      2.90223708	      3.90193585	      1.44614838	     17.08199163
      5.45000000	     -6.99688464	      3.00788595	    -54.02650016	      0.94479894	      0.84541530	      0.89518633	    -10.87050134	     -2.52156069	     16.87993258	    -26.33604229	      2.03025576	      3.99430218	     32.89486019	     -9.37141059	     -2.63626120	    -23.17886208	      0.47560740	      2.79489049	      3.86426446	      1.51341724	     17.15694963
      5.46000000	     -7.18200348	      2.97250472	    -54.04894566	      0.95228514	      0.84736183	      0.89875396	    -10.25436195	     -2.40111498	     17.03036493	    -27.50234679	      0.24458656	      4.12406614	     32.47499690	     -9.31874996	     -2.78897887	    -23.28002736	      1.04147256	      2.70456174	      3.81727319	      1.64782990	     17.27818113
      5.47000000	     -7.38355777	      2.92497012	    -54.14255843	      0.95947936	      0.84931805	      0.90234050	     -9.55463433	     -2.25292193	     17.22083235	    -28.73867188	     -1.50687917	      4.21114410	     31.99029120	     -9.33521785	     -3.02115831	    -23.27322328	      1.58882129	      2.64511306	      3.76832546	      1.80858799	     17.42330607
      5.48000000	     -7.62027983	      2.87499382	    -54.29620536	      0.96631763	      0.85120044	      0.90588434	     -8.73121647	     -2.05424931	     17.44558811	    -30.08876506	     -3.18775490	      4.28941466	     31.51050043	     -9.42032809	     -3.26421865	    -23.23180796	      2.11910889	      2.59569312	      3.72992777	      1.99955363	     17.61941159
      5.49000000	     -7.84348466	      2.84707110	    -54.48573424	      0.97290385	      0.85302929	      0.90943855	     -7.82696663	     -1.86860230	     17.64039482	    -31.50473762	     -4.82541045	      4.36347317	     31.00065298	     -9.50779955	     -3.55465984	    -23.11568500	      2.60654163	      2.57508884	      3.70767467	      2.16077707	     17.79811867
      5.50000000	     -8.04936975	      2.84378931	    -54.68748439	      0.97926822	      0.85477044	      0.91298716	     -6.84674658	     -1.70104654	     17.76452196	    -32.98274783	     -6.39638966	      4.44541880	     30.47916980	     -9.57856309	     -3.86353340	    -22.94645962	      3.05495743	      2.56735316	      3.70479028	      2.28440789	     17.94646391
      5.51000000	     -8.23483331	      2.87726333	    -54.87566532	      0.98542266	      0.85635795	      0.91646127	     -5.77335668	     -1.55811373	     17.79577225	    -34.54321022	     -7.84047565	      4.53183345	     29.99472535	     -9.60355384	     -4.12832956	    -22.78426752	      3.47911084	      2.55993237	      3.72563261	      2.35753657	     18.06466104
      5.52000000	     -8.36995781	      2.93048282	    -55.03238039	      0.99147959	      0.85785361	      0.91991735	     -4.66940115	     -1.47418916	     17.67854567	    -36.13086198	     -9.12568342	      4.60977271	     29.48554267	     -9.56060244	     -4.38991315	    -22.58021397	      3.87002951	      2.53745318	      3.75083746	      2.36796624	     18.11212775
      5.53000000	     -8.44800050	      3.00132459	    -55.14214813	      0.99748174	      0.85923924	      0.92332314	     -3.54370048	     -1.46510042	     17.39125467	    -37.73596720	    -10.17801931	      4.66785626	     28.95941104	     -9.43490076	     -4.62697506	    -22.35525974	      4.24445286	      2.49012589	      3.77324065	      2.31049103	     18.08552334
      5.54000000	     -8.45789385	      3.07657512	    -55.19802268	      1.00347595	      0.86052893	      0.92663483	     -2.41827362	     -1.54556045	     16.93132941	    -39.34170060	    -10.92955025	      4.69551836	     28.40133569	     -9.21725106	     -4.83272563	    -22.11038242	      4.60779733	      2.41331767	      3.77242696	      2.19128887	     17.98864082
      5.55000000	     -8.39702440	      3.15780124	    -55.20244492	      1.00948657	      0.86173258	      0.92982272	     -1.30474690	     -1.72877697	     16.31636422	    -40.91164472	    -11.33243595	      4.67035643	     27.80797358	     -8.90357590	     -5.01440198	    -21.84153436	      4.96400362	      2.30055706	      3.74384447	      2.01281203	     17.82005733
      5.56000000	     -8.27052154	      3.22744021	    -55.15817827	      1.01551486	      0.86287618	      0.93289092	     -0.22871005	     -2.00187471	     15.57166507	    -42.41369755	    -11.36873457	      4.55920171	     27.16257866	     -8.51212691	     -5.17347753	    -21.53839381	      5.30662638	      2.14990319	      3.67479161	      1.79082080	     17.58986049
      5.57000000	     -8.08292426	      3.26490679	    -55.08123937	      1.02153134	      0.86400535	      0.93584067	      0.78380053	     -2.34014709	     14.74697151	    -43.81638333	    -11.08710564	      4.16868228	     26.44953508	     -8.06878560	     -5.32301310	    -21.20317210	      5.65050155	      1.85851979	      3.54418747	      1.54640820	     17.31910921
      5.58000000	     -7.85751249	      3.27549938	    -54.96035697	      1.02752836	      0.86511687	      0.93864707	      1.73397427	     -2.71646037	     13.87963092	    -45.08856715	    -10.51972556	      3.81160392	     25.68809003	     -7.58535295	     -5.42459596	    -20.82398468	      5.95968862	      1.69792801	      3.36935543	      1.29678421	     17.01056909
      5.59000000	     -7.59990629	      3.23045570	    -54.80474682	      1.03342903	      0.86624946	      0.94131665	      2.59460297	     -3.07704917	     13.03652552	    -46.22669389	     -9.74571120	      3.21684860	     24.88582730	     -7.09887765	     -5.49981324	    -20.45647747	      6.25640228	      1.48325351	      3.11730572	      1.06286954	     16.63805590
      5.60000000	     -7.35403451	      3.13438214	    -54.60864296	      1.03921780	      0.86738861	      0.94388312	      3.37814627	     -3.37570611	     12.22929992	    -47.20161633	     -8.83897034	      2.55096994	     24.07313754	     -6.64690175	     -5.53360965	    -20.09457600	      6.52522649	      1.29545504	      2.82794381	      0.87711481	     16.23417922
      5.61000000	     -7.12171159	      3.00894275	    -54.38623279	      1.04484077	      0.86852616	      0.94635152	      4.10979775	     -3.59699840	     11.52744982	    -48.02792191	     -7.90463719	      1.90841939	     23.25579417	     -6.22164334	     -5.49696455	    -19.71634282	      6.77999065	      1.14254054	      2.51935602	      0.72666171	     15.79840637
      5.62000000	     -6.92518438	      2.83034004	    -54.12618281	      1.05030763	      0.86967518	      0.94875440	      4.76377714	     -3.70324837	     10.90551810	    -48.68641112	     -6.96482717	      1.23521628	     22.45264248	     -5.86284484	     -5.42019890	    -19.36809329	      7.01437639	      0.98665521	      2.18881143	      0.64360292	     15.34457783
      5.63000000	     -6.76455254	      2.60312566	    -53.84026752	      1.05555135	      0.87082017	      0.95108500	      5.35224717	     -3.67042166	     10.42778868	    -49.20158235	     -6.04549797	      0.57110030	     21.68605774	     -5.57703269	     -5.31000562	    -19.08587537	      7.24262773	      0.82598168	      1.83239691	      0.62351288	     14.84781361
      5.64000000	     -6.64198318	      2.35780038	    -53.51292815	      1.06064987	      0.87192680	      0.95336760	      5.89970094	     -3.53671478	     10.03409071	    -49.57760135	     -5.16408771	      0.10574261	     20.95116091	     -5.33212132	     -5.10240513	    -18.81144695	      7.46045310	      0.70153206	      1.49555000	      0.64668961	     14.33643578
      5.65000000	     -6.55229080	      2.07836485	    -53.18513347	      1.06554362	      0.87302027	      0.95563851	      6.38799711	     -3.28372676	      9.77288145	    -49.81316422	     -4.25343585	     -0.38138305	     20.25330312	     -5.16143913	     -4.92374265	    -18.59993766	      7.68050560	      0.53343083	      1.15268809	      0.72331894	     13.82772663
      5.66000000	     -6.50286750	      1.80622126	    -52.82084832	      1.07030072	      0.87400274	      0.95785125	      6.87812405	     -2.96250954	      9.56021212	    -49.95893273	     -3.29340983	     -0.52882002	     19.63789043	     -5.02511029	     -4.69134172	    -18.45213906	      7.91210092	      0.45857481	      0.85649354	      0.83075414	     13.30489203
